<?xml version="1.0" encoding="utf-8" ?>
<svg xmlns="http://www.w3.org/2000/svg" xmlns:xlink="http://www.w3.org/1999/xlink" width="500" height="500">
	<path fill="#0A4F8B" transform="scale(0.488281 0.488281)" d="M710.493 292.958L710.164 292.42C706.752 286.962 702.144 282.044 697.965 277.146C714.15 269.469 737.841 264.132 755.266 270.25C764.663 273.549 771.756 280.742 775.839 289.719C781.353 301.842 780.878 316.639 776.132 328.966C772.076 339.502 766.232 346.768 758.379 354.715C755.262 348.967 752.856 343.519 747.561 339.416L747.504 292.998L710.493 292.958Z"/>
	<path fill="#FEFEFE" transform="scale(0.488281 0.488281)" d="M316.578 293.545L328.496 293.641C329.533 293.649 331.672 293.97 332.515 293.673C332.754 293.589 333.67 292.521 333.868 292.325L339.13 287.289L360.537 269.154C402.306 236.532 458.116 219.901 510.737 219.644C562.632 219.389 616.295 235.945 658.825 265.707C664.584 269.736 670.063 274.129 675.384 278.718L685.302 287.463C687.107 289.084 689.085 291.156 691.291 292.202C695.927 294.397 705.335 293.065 710.493 292.958L747.504 292.998L747.561 339.416L747.577 356.053C747.579 359.487 747.341 363.051 748.003 366.439C749.768 375.471 755.328 384.5 758.75 393.109C763.861 405.968 768.028 419.508 771.287 432.952C788.867 505.468 774.693 586.695 734.233 649.329C724.117 664.99 712.021 679.332 698.857 692.508C674.368 717.018 644.449 736.755 612.356 749.809L598.075 755.107C592.479 756.89 585.428 757.95 580.707 761.653C573.757 767.105 567.322 774.936 561.046 781.236L521.034 821.034L513.475 828.527C512.781 829.215 511.959 830.317 511.03 830.639L459.626 776.444L449.976 766.028C448.431 764.308 446.632 761.752 444.688 760.511C441.235 758.307 435.304 757.571 431.334 756.425L416.887 751.676C404.306 747.351 392.549 741.941 380.96 735.445C296.613 688.167 242.664 597.876 243.991 500.746C244.454 466.841 250.026 432.986 262.4 401.337C266.382 391.154 271.96 381.623 275.78 371.408C276.764 368.779 276.45 365.514 276.39 362.75L276.015 348.399L275.986 293.93L316.578 293.545Z"/>
	<defs>
		<linearGradient id="gradient_0" gradientUnits="userSpaceOnUse" x1="484.11832" y1="365.20999" x2="491.86734" y2="230.67796">
			<stop offset="0" stop-color="#006AA1"/>
			<stop offset="1" stop-color="#0088A6"/>
		</linearGradient>
	</defs>
	<path fill="url(#gradient_0)" transform="scale(0.488281 0.488281)" d="M289.146 358.032C288.106 351.416 288.504 344.396 288.48 337.705L288.383 306.022L338.363 306.033C343.019 299.738 349.298 294.499 355.251 289.461C372.137 275.171 390.78 262.201 410.959 252.976C485.249 219.013 575.884 225.871 644.157 270.804C654.319 277.492 664.265 284.883 673.238 293.106C677.351 296.875 682.206 303.743 687.446 305.604L687.915 305.761C685.861 309.476 683.201 312.489 679.483 314.581C677.29 315.815 675.133 316.654 673.333 318.466L671.841 318.526C663.615 310.324 655.371 302.437 646.146 295.331C607.185 265.316 558.859 250.961 510.039 251.017C473.466 251.058 437.191 260.512 404.99 277.792C393.172 284.134 381.17 291.806 371.162 300.78L350.367 321.357C349.299 322.422 346.651 325.738 345.442 326.267C344.039 326.881 337.863 325.45 336.062 325.293C326.623 324.47 316.723 323.745 307.3 325.03L307.446 340.294L306.834 340.048L303.196 338.316C299.483 341.88 295.554 345.315 293.02 349.866C291.552 352.502 290.634 355.421 289.146 358.032Z"/>
	<defs>
		<linearGradient id="gradient_1" gradientUnits="userSpaceOnUse" x1="530.26886" y1="809.81403" x2="496.6676" y2="263.88974">
			<stop offset="0" stop-color="#040024"/>
			<stop offset="1" stop-color="#022E70"/>
		</linearGradient>
	</defs>
	<path fill="url(#gradient_1)" transform="scale(0.488281 0.488281)" d="M307.446 340.294L307.3 325.03C316.723 323.745 326.623 324.47 336.062 325.293C337.863 325.45 344.039 326.881 345.442 326.267C346.651 325.738 349.299 322.422 350.367 321.357L371.162 300.78C381.17 291.806 393.172 284.134 404.99 277.792C437.191 260.512 473.466 251.058 510.039 251.017C558.859 250.961 607.185 265.316 646.146 295.331C655.371 302.437 663.615 310.324 671.841 318.526L673.333 318.466C675.133 316.654 677.29 315.815 679.483 314.581C683.201 312.489 685.861 309.476 687.915 305.761C694.479 304.901 701.269 305.029 707.877 305.016L734.993 305.022L734.93 346.785C734.897 354.984 734.014 363.235 735.439 371.358C736.643 378.224 742.122 385.396 744.861 391.912C750.368 405.011 755.121 418.702 758.457 432.523C779.641 520.293 755.733 617.189 691.254 681.574C667.369 705.425 638.969 724.788 607.66 737.517C602.62 739.565 597.486 741.781 592.316 743.477C587.284 745.129 581.154 745.653 576.626 748.442C573.36 750.453 570.725 753.457 568.022 756.138L555.567 768.525L511.153 812.949L459.576 759.346L452.054 751.319C451.489 750.697 450.392 749.077 449.75 748.765C448.391 748.102 446.016 747.865 444.5 747.459L432.706 743.972C418.912 739.664 405.509 734.398 392.801 727.469C308.554 681.537 255.227 593.359 256.549 496.993C256.971 466.224 263.334 435.912 273.819 407.062C276.405 399.948 279.476 392.659 282.835 385.876C284.374 382.768 287.558 379.242 288.297 375.899C289.566 370.155 288.665 363.873 289.146 358.032C290.634 355.421 291.552 352.502 293.02 349.866C295.554 345.315 299.483 341.88 303.196 338.316L306.834 340.048L307.446 340.294Z"/>
	<path fill="#2579B7" transform="scale(0.488281 0.488281)" d="M673.333 318.466C677.696 317.826 685.699 316.925 689.745 318.713C685.14 319.085 678.644 319.007 674.601 321.355L671.841 318.526L673.333 318.466Z"/>
	<path fill="#6F81B1" transform="scale(0.488281 0.488281)" d="M447.001 430.319C450.033 434.86 451.971 442.499 452.094 447.882C452.038 449.078 452.491 451.088 451.75 451.964C451.116 448.908 450.854 445.978 448.322 443.921L445.553 435.606C446.379 433.937 446.682 432.137 447.001 430.319Z"/>
	<path fill="#6CF9FE" transform="scale(0.488281 0.488281)" d="M589.131 373.146C590.522 369.971 592.407 367.052 595.02 364.75C602.237 358.392 612.973 359.445 621.851 359.874L637.617 360.584L637.944 361.349C635.668 362.575 632.511 362.857 629.964 363.098C626.259 363.448 622.475 363.747 618.75 363.697C611.033 363.592 604.872 362.983 598.175 367.693C596.418 368.929 594.474 370.405 593.451 372.312C592.012 372.735 590.617 372.949 589.131 373.146Z"/>
	<path fill="#6CF9FE" transform="scale(0.488281 0.488281)" d="M361.172 377.787C364.572 372.423 369.508 365.882 375.134 362.813C382.169 358.977 392.223 360.07 400.01 359.99C407.69 359.912 415.36 358.934 422.818 361.374C426.546 362.593 428.671 365.706 430.385 369.041L429.505 368.856C427.849 368.461 426.707 367.318 425.25 366.519C423.616 365.624 421.63 364.892 419.844 364.409C413.766 362.767 407.862 364.106 401.75 363.972C395.5 363.834 389.432 362.748 383.25 364.334L382.425 364.534C379.453 365.275 376.572 366.449 374.027 368.167C371.052 370.177 368.335 372.709 365.586 375.013C364.206 376.17 362.981 377.552 361.172 377.787Z"/>
	<path fill="#12C0E5" transform="scale(0.488281 0.488281)" d="M667.63 408.491C681.397 419.538 690.534 436.251 692.301 453.872C693.906 469.869 688.345 487.486 678.124 499.866C667.412 512.841 652.878 519.383 636.609 522.214C630.888 523.209 618.171 523.952 613.495 520.706L612.201 519.709L612.808 519.316C616.237 519.818 620.265 519.407 623.506 520.239L624.25 520.445C625.91 519.535 629.368 519.915 631.386 519.621L635.306 518.859C644.962 519.573 656.697 515.308 664.746 510.11C677.454 501.903 686.932 486.584 690.151 471.948L690.285 471.32L690.644 469.653C693.079 456.147 688.743 436.751 680.916 425.506L680.377 424.75C676.415 419.129 671.846 414.479 666.596 410.084L667.63 408.491Z"/>
	<path fill="#2579B7" transform="scale(0.488281 0.488281)" d="M448.322 443.921C450.854 445.978 451.116 448.908 451.75 451.964C452.491 451.088 452.038 449.078 452.094 447.882C453.07 453.068 452.756 459.599 451.665 464.75C448.663 478.921 440.878 492.689 428.73 501.013C415.608 510.005 400.684 512.928 385.098 509.872C382.664 509.395 380.151 508.922 377.767 508.239C376.446 507.861 374.909 507.072 373.578 506.903C374.529 505.773 375.241 505.156 376.51 504.402L377.12 504.812L376.75 505.272C379.27 507.293 382.627 508.057 385.75 508.561L386.482 508.691C394.379 510.001 403.884 508.885 411.426 506.351C416.981 504.486 422.574 501.958 427.25 498.396C439.261 489.247 446.402 477.232 448.588 462.25C449.46 456.276 449.171 449.88 448.322 443.921Z"/>
	<path fill="#6CF9FE" transform="scale(0.488281 0.488281)" d="M565.127 456.957C564.079 444.453 569.869 429.431 577.525 419.75C584.57 410.841 593.875 402.435 604.75 398.519C610.574 396.422 616.723 395.536 622.845 394.828C638.86 392.977 655.147 398.659 667.63 408.491L666.596 410.084C649.819 399.425 632.681 394.591 612.921 398.889C597.88 402.159 584.622 412.372 576.399 425.25C573.145 430.347 570.38 435.801 568.522 441.567C567.709 444.091 566.901 446.723 566.427 449.332C566.039 451.467 566.418 455.353 565.127 456.957Z"/>
	<defs>
		<linearGradient id="gradient_2" gradientUnits="userSpaceOnUse" x1="361.36496" y1="509.12271" x2="373.93314" y2="468.83307">
			<stop offset="0" stop-color="#607FAD"/>
			<stop offset="1" stop-color="#9295B6"/>
		</linearGradient>
	</defs>
	<path fill="url(#gradient_2)" transform="scale(0.488281 0.488281)" d="M333.331 456.042L337.034 456.019L337.467 458.008C338.022 465.573 339.151 471.58 342.261 478.575L343.895 477.226C348.322 487.379 354.116 495.282 363.339 501.626L361.778 503.396C374.196 512.819 392.549 516.313 407.815 514.733L408.512 514.657C402.357 518.132 393.106 518.408 386.36 517.19C373.946 514.949 362.416 510.047 352.986 501.479C339.596 489.312 334.154 473.729 333.331 456.042Z"/>
	<path fill="#001157" transform="scale(0.488281 0.488281)" d="M343.895 477.226C348.322 487.379 354.116 495.282 363.339 501.626L361.778 503.396C352.456 496.813 347.061 488.73 342.261 478.575L343.895 477.226Z"/>
	<path fill="#FEFEFE" transform="scale(0.488281 0.488281)" d="M333.331 456.042C333.36 450.598 333.45 445.713 334.856 440.408C338.986 424.83 349.233 411.881 363.203 403.927C377.047 396.045 394.126 393.85 409.479 398.228C426.784 403.163 438.461 414.92 447.001 430.319C446.682 432.137 446.379 433.937 445.553 435.606L444.859 434.714C438.232 420.156 428.709 409.291 413.458 403.56C399.428 398.287 381.841 399.022 368.24 405.411C355.674 411.313 345.207 422.112 340.538 435.25C338.231 441.742 336.979 449.128 337.034 456.019L333.331 456.042Z"/>
	<path fill="#FEFEFE" transform="scale(0.488281 0.488281)" d="M379.472 633.182C392.065 647.787 404.952 660.482 420.706 671.718C424.81 674.645 429.037 677.893 433.552 680.12C437.055 682.317 440.647 684.418 444.4 686.161C448.576 688.1 454.014 689.748 457.484 692.814C456.59 692.825 456.784 692.848 455.808 692.742C450.245 692.142 444.219 689.012 439.121 686.831C414.214 676.174 389.299 661.085 372.447 639.489L379.472 633.182Z"/>
	<path fill="#B3B1B8" transform="scale(0.488281 0.488281)" d="M470.602 700.139C470.042 696.203 470.457 692.212 470.476 688.25L470.345 666.741L469.964 623.413C469.962 617.082 469.438 610.318 470.327 604.065L470.453 603.25C471.558 595.712 474.888 591.13 479.967 585.713C480.774 588.44 481.581 591.246 481.437 594.118C480.19 594.584 480.244 594.508 479.692 595.734C476.294 603.285 476.016 611.834 475.904 619.984L475.979 644.737L476.019 682.415C476.02 687.877 476.485 693.832 475.794 699.237C473.991 699.848 472.505 700.106 470.602 700.139Z"/>
	<path fill="#001157" transform="scale(0.488281 0.488281)" d="M337.034 456.019C336.979 449.128 338.231 441.742 340.538 435.25C345.207 422.112 355.674 411.313 368.24 405.411C381.841 399.022 399.428 398.287 413.458 403.56C428.709 409.291 438.232 420.156 444.859 434.714L445.553 435.606L448.322 443.921C449.171 449.88 449.46 456.276 448.588 462.25C446.402 477.232 439.261 489.247 427.25 498.396C422.574 501.958 416.981 504.486 411.426 506.351C403.884 508.885 394.379 510.001 386.482 508.691L385.75 508.561C382.627 508.057 379.27 507.293 376.75 505.272L377.12 504.812L376.51 504.402C376.173 503.48 376.166 502.729 376.089 501.75C377.987 500.048 379.188 500.482 381.598 500.477L406.603 499.229C407.56 498.941 407.885 498.712 408.65 498.114C409.248 496.125 408.741 493.585 408.572 491.525L412.636 490.334C420.153 487.545 424.838 482.815 429.727 476.644C431.471 474.442 433.297 472.352 434.487 469.786L435.25 469.977C436.677 470.166 438.209 469.319 439.365 468.616C441.619 467.441 443.397 466.015 445.319 464.385C447.105 456.552 445.401 446.171 444.098 438.353L443.264 435.09C441.961 433.359 441.102 431.22 439.757 429.422C433.799 417.982 422.621 408.694 410.219 404.912C394.298 400.056 379.183 402.277 364.778 410.281C353.293 416.662 345.006 427.592 341.513 440.25C340.248 444.836 339.541 449.679 339.482 454.431C339.531 457.903 339.659 461.129 340.311 464.544L340.777 466.996L343.895 477.226L342.261 478.575C339.151 471.58 338.022 465.573 337.467 458.008L337.034 456.019Z"/>
	<path fill="#FEFEFE" transform="scale(0.488281 0.488281)" d="M381.598 500.477L406.603 499.229C408.815 500.353 409.239 502.74 410.47 504.723C399.1 507.981 388.58 507.067 377.12 504.812L376.51 504.402C376.173 503.48 376.166 502.729 376.089 501.75C377.987 500.048 379.188 500.482 381.598 500.477Z"/>
	<path fill="#B3B1B8" transform="scale(0.488281 0.488281)" d="M439.365 468.616C441.619 467.441 443.397 466.015 445.319 464.385C444.777 475.228 438.78 485.564 430.851 492.804C425.192 497.97 418.835 501.692 411.68 504.419L410.47 504.723C409.239 502.74 408.815 500.353 406.603 499.229C407.56 498.941 407.885 498.712 408.65 498.114C409.248 496.125 408.741 493.585 408.572 491.525L412.636 490.334C420.153 487.545 424.838 482.815 429.727 476.644C431.471 474.442 433.297 472.352 434.487 469.786L435.25 469.977C436.677 470.166 438.209 469.319 439.365 468.616Z"/>
	<path fill="#6F81B1" transform="scale(0.488281 0.488281)" d="M540.549 584.196C546.318 588.314 551.183 593.608 552.349 600.875C553.138 605.799 552.925 610.734 552.841 615.696L552.597 635.213L552.534 703.281L511.041 744.28L488.527 720.859L477.877 710.058C475.111 707.251 471.685 704.042 470.602 700.139C472.505 700.106 473.991 699.848 475.794 699.237C478.696 703.281 483.241 706.406 486.846 709.835L511.061 733.2L530.747 714.887C536.263 709.6 542.25 704.219 546.998 698.249L546.973 636.941L546.969 617.777C546.959 613.374 547.09 608.903 546.319 604.547C545.587 600.407 543.635 596.228 540.918 593.058C540.088 591.091 540.601 586.455 540.549 584.196Z"/>
	<path fill="#6F81B1" transform="scale(0.488281 0.488281)" d="M727.639 407.226C732.673 415.179 734.6 425.444 736.715 434.494C742.713 460.159 745.254 485.716 743.51 512.064C742.565 526.337 740.181 540.371 737.42 554.386L736.857 555.412L736.25 555.267C733.687 549.159 730.686 541.986 730.193 535.331C729.775 529.698 731.683 523.822 732.305 518.25C733.176 510.451 733.163 502.285 732.916 494.449C732.534 482.341 731.452 470.249 729.386 458.307C728.193 451.409 726.031 444.37 725.542 437.388C725.261 433.381 726.079 429.47 726.454 425.5L727.639 407.226Z"/>
	<path fill="#0A4F8B" transform="scale(0.488281 0.488281)" d="M474.715 498.299C488.234 496.384 502.057 498.053 515.631 498.016L540.362 497.011C543.326 497.027 547.385 496.737 550.109 498.062L541 503.995L538.981 505.458C526.767 515.681 522.679 526.683 520.859 542.142C515.616 543.286 508.554 542.476 503.144 542.246L501.145 531.81C497.559 517.847 488.02 505.894 475.495 498.732L474.715 498.299Z"/>
	<path fill="#6F81B1" transform="scale(0.488281 0.488281)" d="M296.544 406.786C297.142 411.179 297.189 415.59 297.526 420C298.02 426.451 299.042 432.838 298.375 439.333C297.765 445.259 295.632 451.177 294.362 457C291.899 468.299 290.264 479.968 289.655 491.523C289.072 502.59 289.602 513.724 290.814 524.731C291.535 531.278 293.126 537.88 292.827 544.499C292.494 551.875 289.822 559.928 288.41 567.25L287.75 567.509L286.835 565.365C282.599 549.985 279.451 534.182 278.28 518.251C276.301 491.308 279.672 464.316 286.49 438.25C289.308 427.479 292.079 417.014 296.544 406.786Z"/>
	<path fill="#001157" transform="scale(0.488281 0.488281)" d="M720.852 609.483L720.724 612.657C719.877 618.774 714.234 625.616 709.333 629.094C702.912 633.65 693.571 635.626 685.808 634.141C665.158 630.191 647.763 608.202 636.564 591.812L622.718 569.945C621.853 568.572 618.596 564.117 618.626 562.512C618.672 560.012 620.545 556.498 621.138 553.902C622.083 549.759 622.016 545.364 623.038 541.25C623.495 539.409 623.974 539.197 625.608 538.293L639.395 563.996C647.024 577.061 656.228 589.627 666.964 600.29C674.85 608.122 684.325 615.219 695.135 618.329L696 618.574L696.85 618.83C702.083 620.329 707.894 619.972 712.623 617.186C715.819 615.302 718.572 612.389 720.852 609.483Z"/>
	<defs>
		<linearGradient id="gradient_3" gradientUnits="userSpaceOnUse" x1="463.23575" y1="638.89056" x2="554.61694" y2="674.79846">
			<stop offset="0" stop-color="black"/>
			<stop offset="1" stop-color="#020138"/>
		</linearGradient>
	</defs>
	<path fill="url(#gradient_3)" transform="scale(0.488281 0.488281)" d="M540.918 593.058C543.635 596.228 545.587 600.407 546.319 604.547C547.09 608.903 546.959 613.374 546.969 617.777L546.973 636.941L546.998 698.249C542.25 704.219 536.263 709.6 530.747 714.887L511.061 733.2L486.846 709.835C483.241 706.406 478.696 703.281 475.794 699.237C476.485 693.832 476.02 687.877 476.019 682.415L475.979 644.737L475.904 619.984C476.016 611.834 476.294 603.285 479.692 595.734C480.244 594.508 480.19 594.584 481.437 594.118L481.421 670.426L481.422 688.195C481.422 689.932 481.022 692.64 481.403 694.25C481.418 694.315 482.071 695.473 482.089 695.498L482.422 695.83L487.358 696.292C490.16 701.179 495.927 704.884 500.225 708.406C503.125 708.141 503.878 707.324 506.245 705.75C507.604 704.846 508.484 703.718 509.745 702.75C512.191 700.872 515.464 697.394 517.177 694.75C518.43 692.814 520.186 691.265 521.701 689.5C525.1 685.54 527.46 680.899 530.213 676.5L532.723 672.219L533.225 671.5L535.191 668.75C536.055 667.422 536.937 666.482 538.067 665.348C538.084 660.599 538.946 654.103 537.721 649.588L540.542 646.829L540.918 593.058Z"/>
	<path fill="#6F81B1" transform="scale(0.488281 0.488281)" d="M482.422 695.83L487.358 696.292C490.16 701.179 495.927 704.884 500.225 708.406C501.867 710.276 504.81 712.771 504.913 715.363C496.711 710.494 489.219 702.444 482.422 695.83Z"/>
	<path fill="#2579B7" transform="scale(0.488281 0.488281)" d="M537.721 649.588L540.542 646.829L540.51 686.212C540.509 687.963 541.134 693.782 540.503 695.163C540.354 695.489 539.163 696.529 538.853 696.839L512.251 721.322C510.322 719.822 506.092 717.322 504.913 715.363C504.81 712.771 501.867 710.276 500.225 708.406C503.125 708.141 503.878 707.324 506.245 705.75C507.604 704.846 508.484 703.718 509.745 702.75C512.191 700.872 515.464 697.394 517.177 694.75C518.43 692.814 520.186 691.265 521.701 689.5C525.1 685.54 527.46 680.899 530.213 676.5L532.723 672.219L533.225 671.5L535.191 668.75C536.055 667.422 536.937 666.482 538.067 665.348C538.084 660.599 538.946 654.103 537.721 649.588Z"/>
	<path fill="#0A4F8B" transform="scale(0.488281 0.488281)" d="M625.608 538.293C633.252 539.161 642.135 537.358 649.588 535.595C653.74 545.694 659.411 553.698 665.851 562.433C668.146 565.547 670.969 568.26 673.683 571.005C683.002 580.428 695.543 589.86 708.983 591.817C711.723 592.216 714.548 591.031 716.682 589.359C720.581 586.306 721.78 581.456 722.972 576.909C724.981 585.426 725.772 594.276 723.491 602.847C722.974 604.787 722.397 607.176 721.292 608.856L720.852 609.483C718.572 612.389 715.819 615.302 712.623 617.186C707.894 619.972 702.083 620.329 696.85 618.83L696 618.574L695.135 618.329C684.325 615.219 674.85 608.122 666.964 600.29C656.228 589.627 647.024 577.061 639.395 563.996L625.608 538.293Z"/>
	<path fill="#2579B7" transform="scale(0.488281 0.488281)" d="M306.509 571.973C306.031 558.648 310.333 544.502 312.964 531.5L322.328 483.068C324.612 487.688 326.699 492.511 329.458 496.869C337.98 510.329 349.554 518.082 363.185 525.621C354.6 543.518 347.102 562.341 335.428 578.539C331.11 584.53 325.68 590.916 318.401 593.271C316.618 593.848 315.459 593.797 313.75 592.865C311.758 591.78 310.797 589.466 309.947 587.5L309.677 586.885C307.655 582.101 308.006 576.815 306.509 571.973Z"/>
	<path fill="#0A4F8B" transform="scale(0.488281 0.488281)" d="M565.127 456.957C566.418 455.353 566.039 451.467 566.427 449.332C566.901 446.723 567.709 444.091 568.522 441.567C570.38 435.801 573.145 430.347 576.399 425.25C584.622 412.372 597.88 402.159 612.921 398.889C632.681 394.591 649.819 399.425 666.596 410.084C671.846 414.479 676.415 419.129 680.377 424.75L680.916 425.506C688.743 436.751 693.079 456.147 690.644 469.653L690.285 471.32L690.151 471.948C686.932 486.584 677.454 501.903 664.746 510.11C656.697 515.308 644.962 519.573 635.306 518.859L636.745 518.292C637.488 517.957 637.874 517.484 638.5 516.981C644.609 512.079 651.105 509.062 652.668 500.483C653.172 497.716 653.02 494.787 652.991 491.986C663.303 490.504 673.774 488.599 680.472 479.75C681.812 477.981 682.796 476.065 683.582 474L683.829 473.366C686.409 466.499 685.182 457.033 682.17 450.504C678.502 442.554 672.108 435.953 663.774 432.957L658.663 430.952C656.335 425.901 654.79 420.469 651.667 415.838L651.22 415.164C646.871 408.761 639.807 404.179 632.203 402.696C623.928 401.082 615.672 403.188 608.752 407.927C602.646 412.109 599.021 417.943 597.838 425.195L597.017 432.052C588.265 433.78 581.164 435.698 575.797 443.56C573.431 447.025 572.121 450.88 571.442 455L571.32 455.711C569.994 464.14 571.856 473.09 576.994 479.955C580.776 485.01 586.991 488.45 593 490.067C593.879 490.303 598.31 490.936 598.825 491.402C599.648 492.148 601.034 497.595 601.608 498.941C604.162 504.935 609.008 510.955 614.5 514.516L615.105 514.918C617.983 516.794 620.919 517.617 624.094 518.787C626.36 519.623 628.992 519.528 631.386 519.621C629.368 519.915 625.91 519.535 624.25 520.445L623.506 520.239C620.265 519.407 616.237 519.818 612.808 519.316L612.201 519.709L611.906 519.251L611.405 518.5C609.255 515.218 606.538 513.384 603.319 511.219C597.226 507.122 590.573 503.921 584.564 499.736L584.059 499.379L581.953 497.75C570.049 486.959 565.949 472.467 565.127 456.957Z"/>
	<defs>
		<linearGradient id="gradient_4" gradientUnits="userSpaceOnUse" x1="453.32983" y1="575.57721" x2="452.21161" y2="507.93039">
			<stop offset="0" stop-color="#6570B8"/>
			<stop offset="1" stop-color="#8785B8"/>
		</linearGradient>
	</defs>
	<path fill="url(#gradient_4)" transform="scale(0.488281 0.488281)" d="M447.41 507.545C455.338 506.431 463.385 508.244 470.5 511.726C478.095 515.444 483.303 523.704 485.885 531.518C488.735 540.143 487.653 549.932 483.603 558C478.475 568.216 469.616 573.017 459.126 576.456C455.602 576.913 451.303 576.86 447.809 576.191C438.325 574.376 430.965 570.522 425.129 562.682C420.03 555.83 418.037 546.463 419.313 538.06L419.444 537.25C420.096 533.013 421.398 529.007 423.408 525.212C428.472 515.653 437.431 510.683 447.41 507.545Z"/>
	<path fill="#001157" transform="scale(0.488281 0.488281)" d="M468.774 558.655C469.697 558.779 470.548 558.878 471.476 558.889C472.419 558.901 472.98 559.647 473.843 559.878C474.476 560.047 475.123 559.833 475.75 559.914L476.417 560.139C472.486 565.543 465.417 570.519 458.615 571.42C454.054 572.024 449.836 571.931 445.309 571.182C445.113 569.764 445.029 569.595 445.666 568.336L446.667 568.468C447.568 567.725 448.391 567.03 449.142 566.132C450.371 564.661 450.956 565.82 452.489 565.709C453.17 565.66 454.565 564.84 455.254 564.552C456.945 563.829 458.769 563.57 460.5 562.959C463.424 561.928 466.144 560.27 468.774 558.655Z"/>
	<defs>
		<linearGradient id="gradient_5" gradientUnits="userSpaceOnUse" x1="460.45468" y1="564.20697" x2="443.17133" y2="514.26764">
			<stop offset="0" stop-color="#010741"/>
			<stop offset="1" stop-color="#004185"/>
		</linearGradient>
	</defs>
	<path fill="url(#gradient_5)" transform="scale(0.488281 0.488281)" d="M445.309 571.182C442.654 569.753 439.689 568.896 437.032 567.373C432.207 564.607 428.338 560.159 425.923 555.161C422.457 547.987 422.458 539.164 425.1 531.708C427.673 524.445 433.096 518.14 440.121 514.891C447.398 511.526 458.26 511.349 465.668 514.467C472.279 517.249 478.046 523.23 480.569 529.946C483.521 537.806 483.787 546.339 480.153 554.031C479.116 556.226 478.01 558.29 476.417 560.139L475.75 559.914C475.123 559.833 474.476 560.047 473.843 559.878C472.98 559.647 472.419 558.901 471.476 558.889C470.548 558.878 469.697 558.779 468.774 558.655C469.853 557.791 470.949 556.915 471.785 555.802C474.706 551.91 477.057 545.41 476.197 540.482L475.692 540.164C474.427 539.106 473.732 536.749 473.009 535.25C469.119 527.189 462.638 522.108 453.316 522.328C447.611 522.462 440.895 525.411 437.035 529.679C433.077 534.056 432.156 538.78 431.911 544.451C431.844 545.992 432.033 547.724 431.202 549.074C433.482 554.922 436.556 559.674 442.484 562.301C446.686 564.163 450.747 564.573 455.254 564.552C454.565 564.84 453.17 565.66 452.489 565.709C450.956 565.82 450.371 564.661 449.142 566.132C448.391 567.03 447.568 567.725 446.667 568.468L445.666 568.336C445.029 569.595 445.113 569.764 445.309 571.182Z"/>
	<path fill="#FEFEFE" transform="scale(0.488281 0.488281)" d="M431.202 549.074C429.466 544.712 429.728 538.442 431.113 534.007C432.875 528.363 436.79 523.379 442.087 520.702L442.853 520.325C445.027 519.239 447.078 518.636 449.468 518.265C455.078 517.396 462.411 518.573 466.998 522.085C473.036 526.706 475.117 533.275 476.197 540.482L475.692 540.164C474.427 539.106 473.732 536.749 473.009 535.25C469.119 527.189 462.638 522.108 453.316 522.328C447.611 522.462 440.895 525.411 437.035 529.679C433.077 534.056 432.156 538.78 431.911 544.451C431.844 545.992 432.033 547.724 431.202 549.074Z"/>
	<path fill="#0DDACF" transform="scale(0.488281 0.488281)" d="M431.202 549.074C432.033 547.724 431.844 545.992 431.911 544.451C432.156 538.78 433.077 534.056 437.035 529.679C440.895 525.411 447.611 522.462 453.316 522.328C462.638 522.108 469.119 527.189 473.009 535.25C473.732 536.749 474.427 539.106 475.692 540.164L476.197 540.482C477.057 545.41 474.706 551.91 471.785 555.802C470.949 556.915 469.853 557.791 468.774 558.655C466.144 560.27 463.424 561.928 460.5 562.959C458.769 563.57 456.945 563.829 455.254 564.552C450.747 564.573 446.686 564.163 442.484 562.301C436.556 559.674 433.482 554.922 431.202 549.074Z"/>
	<defs>
		<linearGradient id="gradient_6" gradientUnits="userSpaceOnUse" x1="675.44775" y1="572.33966" x2="725.65381" y2="509.78799">
			<stop offset="0" stop-color="#077BAD"/>
			<stop offset="1" stop-color="#10ABDC"/>
		</linearGradient>
	</defs>
	<path fill="url(#gradient_6)" transform="scale(0.488281 0.488281)" d="M649.588 535.595C667.224 528.903 682.788 518.632 693.401 502.716C696.677 497.804 699.193 492.276 701.743 486.96L704.001 503.591C705.15 511.374 706.733 519.103 708.773 526.703C713.239 543.343 721.163 559.713 722.972 576.909C721.78 581.456 720.581 586.306 716.682 589.359C714.548 591.031 711.723 592.216 708.983 591.817C695.543 589.86 683.002 580.428 673.683 571.005C670.969 568.26 668.146 565.547 665.851 562.433C659.411 553.698 653.74 545.694 649.588 535.595Z"/>
	<path fill="#6F81B1" transform="scale(0.488281 0.488281)" d="M566.138 507.615C573.893 506.534 582.63 508.727 589.284 512.789C597.669 517.909 603.334 526.197 605.465 535.75C607.308 544.006 605.566 553.851 600.948 560.942C595.227 569.726 586.049 573.967 576.217 576.252C568.145 577.231 561.269 576.329 554.057 572.445C546.455 568.35 540.054 560.753 537.608 552.435L537.342 551.517C535.962 546.936 535.946 542.457 536.467 537.75C537.045 532.514 538.835 527.19 541.702 522.748C547.455 513.831 556.061 509.689 566.138 507.615Z"/>
	<defs>
		<linearGradient id="gradient_7" gradientUnits="userSpaceOnUse" x1="569.77606" y1="571.07825" x2="571.79559" y2="512.33826">
			<stop offset="0" stop-color="#010034"/>
			<stop offset="1" stop-color="#002C71"/>
		</linearGradient>
	</defs>
	<path fill="url(#gradient_7)" transform="scale(0.488281 0.488281)" d="M569.583 511.672C572.321 511.34 575.594 511.562 578.274 512.233C586.452 514.282 592.973 518.612 597.313 525.906C601.343 532.68 602.874 541.426 600.819 549.094L600.564 550C599.6 553.515 598.277 556.877 596.133 559.856C590.458 567.739 581.49 570.823 572.317 572.357C566.592 572.904 559.19 570.476 554.4 567.323C547.01 562.458 542.23 554.804 540.694 546.13C539.415 538.909 541.891 530.019 546.079 524.052C551.782 515.928 560.258 513.244 569.583 511.672Z"/>
	<path fill="#FEFEFE" transform="scale(0.488281 0.488281)" d="M547.568 543.045C547.605 540.242 547.805 537.76 548.387 535L548.542 534.226C549.584 529.248 553.337 524.333 557.555 521.497C562.93 517.883 570.707 517.377 576.899 518.698C582.794 519.954 587.641 523.308 590.907 528.359C594.288 533.586 594.742 539.113 594.352 545.13C592.447 542.499 592.147 537.591 590.612 534.406C588.434 529.887 584.31 525.716 579.494 524.086L578.75 523.849C574.388 522.426 567.458 522.537 563.017 523.803C557.692 525.32 552.605 529.97 550.695 535.171C549.852 537.465 549.385 540.176 548.087 542.252L547.568 543.045Z"/>
	<path fill="#0DDACF" transform="scale(0.488281 0.488281)" d="M547.568 543.045L548.087 542.252C549.385 540.176 549.852 537.465 550.695 535.171C552.605 529.97 557.692 525.32 563.017 523.803C567.458 522.537 574.388 522.426 578.75 523.849L579.494 524.086C584.31 525.716 588.434 529.887 590.612 534.406C592.147 537.591 592.447 542.499 594.352 545.13C594.002 548.695 592.442 552.294 590.307 555.158C586.737 559.95 581.361 563.034 575.451 563.805C568.391 564.727 562.056 564.151 556.25 559.5C551.419 555.63 548.211 549.152 547.568 543.045Z"/>
	<path fill="#0A4F8B" transform="scale(0.488281 0.488281)" d="M363.185 525.621C369.846 528.128 376.996 530.627 384 531.975C388.823 532.903 393.919 533.152 398.808 533.564C395.521 542.125 391.325 550.19 387.169 558.354C379.369 573.677 370.933 588.637 360.714 602.499C355.476 609.604 349.479 617.112 342.212 622.25L341.537 622.733C337.558 625.524 331.709 628.351 326.75 627.376C320.927 626.23 317.075 621.834 314.243 616.935C311.402 612.018 309.972 607.01 308.696 601.544C307.731 597.41 304.254 575.512 306.053 572.611L306.509 571.973C308.006 576.815 307.655 582.101 309.677 586.885L309.947 587.5C310.797 589.466 311.758 591.78 313.75 592.865C315.459 593.797 316.618 593.848 318.401 593.271C325.68 590.916 331.11 584.53 335.428 578.539C347.102 562.341 354.6 543.518 363.185 525.621Z"/>
	<defs>
		<linearGradient id="gradient_8" gradientUnits="userSpaceOnUse" x1="447.73764" y1="667.04163" x2="404.29416" y2="586.59119">
			<stop offset="0" stop-color="#111011"/>
			<stop offset="1" stop-color="#454C57"/>
		</linearGradient>
	</defs>
	<path fill="url(#gradient_8)" transform="scale(0.488281 0.488281)" d="M379.472 633.182C394.266 616.435 404.832 597.74 416.51 578.884C420.389 581.958 424.275 585.497 428.5 588.072C437.329 593.454 448.382 594.605 458.518 594.533L458.936 667.823L459.053 683.763C459.052 686.709 459.366 690.028 458.298 692.798L457.484 692.814C454.014 689.748 448.576 688.1 444.4 686.161C440.647 684.418 437.055 682.317 433.552 680.12C429.037 677.893 424.81 674.645 420.706 671.718C404.952 660.482 392.065 647.787 379.472 633.182Z"/>
	<path fill="#0A0A0B" transform="scale(0.488281 0.488281)" d="M433.552 680.12C433.713 679.393 433.743 679.773 433.328 679L430.248 676.875C431.027 676.211 431.58 675.856 432.57 675.623L433.465 675.425C434.306 673.792 436.261 672.757 437.744 671.743C444.253 667.293 451.349 664.079 458.222 660.269C458.182 662.679 457.986 665.123 458.788 667.436L458.936 667.823L459.053 683.763C459.052 686.709 459.366 690.028 458.298 692.798L457.484 692.814C454.014 689.748 448.576 688.1 444.4 686.161C440.647 684.418 437.055 682.317 433.552 680.12Z"/>
	<path fill="#6F81B1" transform="scale(0.488281 0.488281)" d="M676.004 651.272L689.36 654.293C664.591 682.911 632.453 706.478 597.621 721.224L578.541 728.519C574.437 729.921 569.463 730.601 565.75 732.917C563.487 734.328 561.619 736.629 559.75 738.511L550.516 747.735L511.354 786.982L473.42 743.872L466.598 735.692C465.824 734.758 464.357 732.708 463.355 732.091C461.089 730.698 455.762 730.668 453 730.03C447.639 728.792 442.26 726.791 437.031 725.072C416.811 718.427 396.157 708.184 378.911 695.661C371.23 690.083 364.142 683.608 357.11 677.252L341.947 661.013L352.919 655.779L370.142 671.282C390.59 688.519 413.246 702.18 438.384 711.448C443.895 713.48 450.056 715.5 455.885 716.355C459.146 716.834 465.444 716.685 468.177 718.17C470.016 719.169 471.834 721.998 473.206 723.609L482.705 734.25L511.696 764.49L538.934 738.708C544.405 733.429 549.811 726.764 556.277 722.703C561.005 719.733 566.585 719.516 571.828 718.061C577.424 716.507 583.063 714.557 588.451 712.4C613.496 702.373 635.831 687.582 656.171 669.963L676.004 651.272Z"/>
	<defs>
		<linearGradient id="gradient_9" gradientUnits="userSpaceOnUse" x1="553.62469" y1="680.89185" x2="627.63843" y2="594.54828">
			<stop offset="0" stop-color="#020100"/>
			<stop offset="1" stop-color="#3F4349"/>
		</linearGradient>
	</defs>
	<path fill="url(#gradient_9)" transform="scale(0.488281 0.488281)" d="M609.601 577.883C611.339 578.675 613.864 584.607 614.854 586.327L627.895 607.247C635.001 617.727 643.503 628.169 653.398 636.153L653.833 636.497L636.648 651.87C623.974 662.404 610.597 671.681 596.197 679.685L565.445 693.011L565.969 594.51C583.556 594.686 596.698 590.058 609.601 577.883Z"/>
	<path fill="#6F81B1" transform="scale(0.488281 0.488281)" d="M307.446 340.294L307.3 325.03C316.723 323.745 326.623 324.47 336.062 325.293C337.863 325.45 344.039 326.881 345.442 326.267C346.651 325.738 349.299 322.422 350.367 321.357L371.162 300.78C381.17 291.806 393.172 284.134 404.99 277.792C437.191 260.512 473.466 251.058 510.039 251.017C558.859 250.961 607.185 265.316 646.146 295.331C655.371 302.437 663.615 310.324 671.841 318.526L674.601 321.355L678.142 324.759L717.013 324.516L717.046 363.025C717.052 369.973 717.415 377.105 716.908 384.029C716.501 389.585 714.701 394.386 713.521 399.75C712.522 404.284 712.457 409.139 712.441 413.758L707.374 402.81C706.412 400.682 705.066 398.231 704.623 395.928C704.161 393.526 704.432 390.619 704.463 388.15L704.869 372.857L705.005 336.494L672.65 336.503C664.733 328.472 656.976 320.217 648.368 312.915C623.996 292.243 594.163 276.107 563.047 268.468C547.18 264.572 530.948 262.894 514.625 262.742C463.579 262.27 408.229 280.309 371.422 316.713L349.665 339.743L338.062 337.837L319.501 336.985L319.528 382.312C319.526 388.746 320.479 396.584 319.117 402.75L318.991 403.343C318.266 406.395 316.188 409.449 314.592 412.128L309.534 421.397L307.446 340.294Z"/>
	<defs>
		<linearGradient id="gradient_10" gradientUnits="userSpaceOnUse" x1="540.67773" y1="673.62073" x2="469.97986" y2="592.39996">
			<stop offset="0" stop-color="#3C6C99"/>
			<stop offset="1" stop-color="#676EAF"/>
		</linearGradient>
	</defs>
	<path fill="url(#gradient_10)" transform="scale(0.488281 0.488281)" d="M479.967 585.713C489.522 576.36 497.047 567.907 503.207 555.875L509.017 557.239L513.189 557.451L520.738 557.43C525.549 567.572 531.39 576.71 540.236 583.8L540.549 584.196C540.601 586.455 540.088 591.091 540.918 593.058L540.542 646.829L537.721 649.588C538.946 654.103 538.084 660.599 538.067 665.348C536.937 666.482 536.055 667.422 535.191 668.75L533.225 671.5L532.723 672.219L530.213 676.5C527.46 680.899 525.1 685.54 521.701 689.5C520.186 691.265 518.43 692.814 517.177 694.75C515.464 697.394 512.191 700.872 509.745 702.75C508.484 703.718 507.604 704.846 506.245 705.75C503.878 707.324 503.125 708.141 500.225 708.406C495.927 704.884 490.16 701.179 487.358 696.292L482.422 695.83L482.089 695.498C482.071 695.473 481.418 694.315 481.403 694.25C481.022 692.64 481.422 689.932 481.422 688.195L481.421 670.426L481.437 594.118C481.581 591.246 480.774 588.44 479.967 585.713Z"/>
	<path fill="#6F81B1" transform="scale(0.488281 0.488281)" d="M540.236 583.8L540.549 584.196C540.601 586.455 540.088 591.091 540.918 593.058L540.542 646.829L537.721 649.588L537.657 589.425C538.424 590.181 538.769 590.827 539.867 590.978L540.236 583.8Z"/>
	<path fill="#FEFEFE" transform="scale(0.488281 0.488281)" d="M513.189 557.451L520.738 557.43C525.549 567.572 531.39 576.71 540.236 583.8L539.867 590.978C538.769 590.827 538.424 590.181 537.657 589.425C528.362 579.429 520.696 568.838 513.189 557.451Z"/>
	<path fill="#FEFEFE" transform="scale(0.488281 0.488281)" d="M479.967 585.713C489.522 576.36 497.047 567.907 503.207 555.875L509.017 557.239C505.577 565.008 501.647 572.205 495.893 578.513L490.094 584.624C489.442 585.303 487.981 586.478 487.56 587.252C487.241 587.838 487.974 595.814 487.981 597.093L488.039 667.628L488.154 683.585C488.211 687.758 488.448 692.238 487.358 696.292L482.422 695.83L482.089 695.498C482.071 695.473 481.418 694.315 481.403 694.25C481.022 692.64 481.422 689.932 481.422 688.195L481.421 670.426L481.437 594.118C481.581 591.246 480.774 588.44 479.967 585.713Z"/>
	<path fill="#001157" transform="scale(0.488281 0.488281)" d="M339.482 454.431C339.541 449.679 340.248 444.836 341.513 440.25C345.006 427.592 353.293 416.662 364.778 410.281C379.183 402.277 394.298 400.056 410.219 404.912C422.621 408.694 433.799 417.982 439.757 429.422C441.102 431.22 441.961 433.359 443.264 435.09L444.098 438.353C445.401 446.171 447.105 456.552 445.319 464.385C443.397 466.015 441.619 467.441 439.365 468.616C438.209 469.319 436.677 470.166 435.25 469.977L434.487 469.786C433.297 472.352 431.471 474.442 429.727 476.644C424.838 482.815 420.153 487.545 412.636 490.334L408.572 491.525C408.741 493.585 409.248 496.125 408.65 498.114C407.885 498.712 407.56 498.941 406.603 499.229L381.598 500.477C379.188 500.482 377.987 500.048 376.089 501.75C376.166 502.729 376.173 503.48 376.51 504.402C375.241 505.156 374.529 505.773 373.578 506.903L363.339 501.626C354.116 495.282 348.322 487.379 343.895 477.226L340.777 466.996L340.311 464.544C339.659 461.129 339.531 457.903 339.482 454.431Z"/>
	<path fill="#FEFEFE" transform="scale(0.488281 0.488281)" d="M439.631 440.729C440.423 440.545 440.103 440.692 440.726 440.296L444.098 438.353C445.401 446.171 447.105 456.552 445.319 464.385C443.397 466.015 441.619 467.441 439.365 468.616C440.45 459.463 440.106 449.922 439.631 440.729Z"/>
	<path fill="#FEFEFE" transform="scale(0.488281 0.488281)" d="M408.572 491.525C408.438 487.628 407.385 472.752 409.629 470.25C412.962 469.205 416.528 469.465 419.987 469.457C424.786 469.447 429.721 469.239 434.487 469.786C433.297 472.352 431.471 474.442 429.727 476.644C424.838 482.815 420.153 487.545 412.636 490.334L408.572 491.525Z"/>
	<path fill="#FEFEFE" transform="scale(0.488281 0.488281)" d="M351.55 470.003C359.713 469.141 369.324 468.213 377.422 469.644L377.927 487.256L377.379 491.75C375.514 492.32 373.097 491.585 371.389 490.752C362.507 486.417 354.923 479.399 351.55 470.003Z"/>
	<path fill="#B3B1B8" transform="scale(0.488281 0.488281)" d="M340.777 466.996L345.525 468.452C347.559 469.237 349.388 469.715 351.55 470.003C354.923 479.399 362.507 486.417 371.389 490.752C373.097 491.585 375.514 492.32 377.379 491.75L377.927 487.256L378.118 499.5C379.234 500.132 380.353 500.27 381.598 500.477C379.188 500.482 377.987 500.048 376.089 501.75C376.166 502.729 376.173 503.48 376.51 504.402C375.241 505.156 374.529 505.773 373.578 506.903L363.339 501.626C354.116 495.282 348.322 487.379 343.895 477.226L340.777 466.996Z"/>
	<path fill="#FEFEFE" transform="scale(0.488281 0.488281)" d="M339.482 454.431C339.541 449.679 340.248 444.836 341.513 440.25C345.006 427.592 353.293 416.662 364.778 410.281C379.183 402.277 394.298 400.056 410.219 404.912C422.621 408.694 433.799 417.982 439.757 429.422C441.102 431.22 441.961 433.359 443.264 435.09L444.098 438.353L440.726 440.296C440.103 440.692 440.423 440.545 439.631 440.729C437.523 439.329 434.192 439.971 431.716 439.977C425.915 439.992 419.602 440.434 413.892 439.561C412.419 439.536 410.936 439.527 409.75 438.505C409.013 437.869 408.784 437.329 408.63 436.409C408.121 433.369 408.461 429.84 408.464 426.753L408.502 409.796L377.561 410.055C377.53 414.787 378.38 436.471 377 438.894L372.67 439.063C363.91 439.887 355.737 440.097 346.977 439.18C345.374 442.512 345.969 447.644 345.91 451.327L345.525 468.452L340.777 466.996L340.311 464.544C339.659 461.129 339.531 457.903 339.482 454.431Z"/>
	<path fill="#B3B1B8" transform="scale(0.488281 0.488281)" d="M346.977 439.18C347.495 438.217 347.419 438.624 347.459 437.587C347.738 430.404 350.871 425.151 354.972 419.437C356.933 422.25 357.884 426.767 359.558 430C360.823 432.444 362.434 434.199 364.316 436.168C364.995 436.878 365.963 438.23 366.754 438.68C367.833 439.294 371.348 439.034 372.67 439.063C363.91 439.887 355.737 440.097 346.977 439.18Z"/>
	<path fill="#B3B1B8" transform="scale(0.488281 0.488281)" d="M413.892 439.561C415.214 439.526 417.379 439.703 418.589 439.308C419.573 438.987 420.715 437.619 421.462 436.934C426.769 432.063 429.07 427.958 431.935 421.395C433.901 423.769 436.788 428.776 439.757 429.422C441.102 431.22 441.961 433.359 443.264 435.09L444.098 438.353L440.726 440.296C440.103 440.692 440.423 440.545 439.631 440.729C437.523 439.329 434.192 439.971 431.716 439.977C425.915 439.992 419.602 440.434 413.892 439.561Z"/>
	<path fill="#0A4F8B" transform="scale(0.488281 0.488281)" d="M397.559 420.782L404.5 420.499L404.038 443.511C412.118 443.192 419.787 443.106 427.769 444.698C428.424 445.849 428.436 447.201 428.617 448.5C429.338 453.647 428.826 458.848 428.393 464.005L405.002 464.485L404.509 486.475L395.625 486.991L380.995 487.209L380.509 464.493L364.151 464.863C363.043 457.821 362.922 451.135 362.906 444.033L374.803 442.974C376.869 442.815 379.22 442.866 381.2 442.244L382.035 421.531L397.559 420.782Z"/>
	<path fill="#001157" transform="scale(0.488281 0.488281)" d="M631.386 519.621C628.992 519.528 626.36 519.623 624.094 518.787C620.919 517.617 617.983 516.794 615.105 514.918L614.5 514.516C609.008 510.955 604.162 504.935 601.608 498.941C601.034 497.595 599.648 492.148 598.825 491.402C598.31 490.936 593.879 490.303 593 490.067C586.991 488.45 580.776 485.01 576.994 479.955C571.856 473.09 569.994 464.14 571.32 455.711L571.442 455C572.121 450.88 573.431 447.025 575.797 443.56C581.164 435.698 588.265 433.78 597.017 432.052L597.838 425.195C599.021 417.943 602.646 412.109 608.752 407.927C615.672 403.188 623.928 401.082 632.203 402.696C639.807 404.179 646.871 408.761 651.22 415.164L651.667 415.838C654.79 420.469 656.335 425.901 658.663 430.952L663.774 432.957C672.108 435.953 678.502 442.554 682.17 450.504C685.182 457.033 686.409 466.499 683.829 473.366L683.582 474C682.796 476.065 681.812 477.981 680.472 479.75C673.774 488.599 663.303 490.504 652.991 491.986C653.02 494.787 653.172 497.716 652.668 500.483C651.105 509.062 644.609 512.079 638.5 516.981C637.874 517.484 637.488 517.957 636.745 518.292L635.306 518.859L631.386 519.621Z"/>
	<path fill="#FEFEFE" transform="scale(0.488281 0.488281)" d="M644.576 462.642C644.509 461.069 644.342 459.375 644.631 457.82C645.432 453.519 648.142 449.708 651.789 447.325C655.697 444.77 661.27 443.505 665.86 444.735C669.992 445.843 672.709 448.658 674.696 452.278L674.136 452.093C672.384 451.387 670.884 450.02 669.216 449.108C665.197 446.912 661.051 446.643 656.789 448.277C652.209 450.033 649.084 453.093 647.014 457.5C646.223 459.184 645.693 461.155 644.576 462.642Z"/>
	<path fill="#FEFEFE" transform="scale(0.488281 0.488281)" d="M574.53 463.638C574.44 460.94 574.44 458.538 575.24 455.933C576.639 451.379 579.383 447.584 583.743 445.507C587.732 443.606 593.613 443.106 597.75 444.704C602.815 446.661 604.723 450.246 606.6 454.955L605.869 454.972C601.913 450.004 599.045 447.734 592.896 445.891C586.719 447.812 581.318 449.693 578.123 455.848L576.308 459.976C575.826 461.317 575.436 462.508 574.53 463.638Z"/>
	<path fill="#FEFEFE" transform="scale(0.488281 0.488281)" d="M611.272 501.503L611.122 501.068C609.854 497.093 610.258 492.364 612.281 488.714C614.361 484.959 617.987 481.806 622.153 480.725C625.975 479.733 631.081 480.427 634.489 482.439C638.7 484.926 640.952 488.365 642.214 493.037C638.13 488.627 634.449 484.22 627.95 483.982C623.719 483.828 620.222 484.412 617.088 487.535C614.718 489.896 613.607 492.908 612.469 495.972C612.204 497.79 612.123 499.863 611.272 501.503Z"/>
	<path fill="#FEFEFE" transform="scale(0.488281 0.488281)" d="M609.75 421.868L610.995 417.5C612.33 414.025 615.845 410.948 619.17 409.417C624.272 407.068 628.793 407.037 634 409.079C638.453 410.825 640.507 413.559 642.323 417.859L641.787 417.822C640.26 417.514 638.827 415.929 637.5 415.094C631.959 411.606 625.461 411.346 619.766 414.569C617.641 415.772 611.436 422.112 609.913 421.977L609.75 421.868Z"/>
	<path fill="#6F81B1" transform="scale(0.488281 0.488281)" d="M576.308 459.976L578.123 455.848C581.318 449.693 586.719 447.812 592.896 445.891C599.045 447.734 601.913 450.004 605.869 454.972C601.976 454.598 596.159 453.519 592.5 454.893L581.511 459.202C579.966 459.799 577.953 459.812 576.308 459.976Z"/>
	<path fill="#6F81B1" transform="scale(0.488281 0.488281)" d="M612.469 495.972C613.607 492.908 614.718 489.896 617.088 487.535C620.222 484.412 623.719 483.828 627.95 483.982C634.449 484.22 638.13 488.627 642.214 493.037L642.707 494.793C641.116 494.697 639.942 494.562 638.427 494.088C633.971 492.695 629.377 491.606 624.75 492.883L612.469 495.972Z"/>
	<path fill="#6F81B1" transform="scale(0.488281 0.488281)" d="M644.576 462.642C645.693 461.155 646.223 459.184 647.014 457.5C649.084 453.093 652.209 450.033 656.789 448.277C661.051 446.643 665.197 446.912 669.216 449.108C670.884 450.02 672.384 451.387 674.136 452.093L674.696 452.278L675.219 453.338C672.555 454.899 665.354 453.921 662 454.363L661.261 454.434C658.99 454.761 657.297 455.695 655.509 457.06L654.955 457.474C651.486 460.104 649.165 464.173 646.216 467.374L644.576 462.642Z"/>
	<path fill="#6F81B1" transform="scale(0.488281 0.488281)" d="M609.75 421.868L609.913 421.977C611.436 422.112 617.641 415.772 619.766 414.569C625.461 411.346 631.959 411.606 637.5 415.094C638.827 415.929 640.26 417.514 641.787 417.822L642.323 417.859L643.414 420.584C641.72 421.615 639.477 420.938 637.547 420.924C633.203 420.891 628.797 420.723 624.5 421.372L623.495 421.503C619.362 422.102 616.426 424.559 614.003 427.807L611.597 431.048L611.505 430.791C610.552 428.191 609.07 424.626 609.75 421.868Z"/>
	<path fill="#2579B7" transform="scale(0.488281 0.488281)" d="M623.868 450.106L627.25 450.324C630.386 450.74 632.875 452.986 634.54 455.584C635.684 457.369 635.907 460.165 635.328 462.188C634.241 465.984 630.99 467.839 627.704 469.494C625.347 469.542 623.235 469.66 621.026 468.67C618.993 467.758 617.335 465.792 616.554 463.741C615.623 461.296 615.438 458.382 616.579 455.966C617.991 452.98 620.86 451.194 623.868 450.106Z"/>
	<path fill="#001157" transform="scale(0.488281 0.488281)" d="M623.938 452.578C625.114 452.634 626.359 452.668 627.5 452.987C629.599 453.574 631.168 455.378 632.167 457.239C632.814 458.446 632.61 461.151 632.161 462.394C631.295 464.793 628.604 466.05 626.474 467.066L623.25 466.86C621.68 466.527 619.715 464.565 618.902 463.256C617.841 461.547 617.797 459.378 618.415 457.5C619.28 454.873 621.587 453.675 623.938 452.578Z"/>
	<path fill="#2579B7" transform="scale(0.488281 0.488281)" d="M624.377 458.173C625.934 458.547 626.736 458.782 627.872 460.012C627.986 461.869 627.487 462.298 626.553 463.862C625.088 463.574 624.583 463.197 623.499 462.25C623.321 460.333 623.612 459.882 624.377 458.173Z"/>
	<path fill="#2579B7" transform="scale(0.488281 0.488281)" d="M643.414 420.584C643.851 425.219 642.769 430.081 639.785 433.75C636.52 437.765 631.098 439.606 626.059 439.93C622.329 440.17 618.368 438.464 615.634 435.995C614.001 434.52 612.755 432.923 611.597 431.048L614.003 427.807C616.426 424.559 619.362 422.102 623.495 421.503L624.5 421.372C628.797 420.723 633.203 420.891 637.547 420.924C639.477 420.938 641.72 421.615 643.414 420.584Z"/>
	<path fill="#2579B7" transform="scale(0.488281 0.488281)" d="M612.469 495.972L624.75 492.883C629.377 491.606 633.971 492.695 638.427 494.088C639.942 494.562 641.116 494.697 642.707 494.793C643.046 499.293 643.109 502.858 640.059 506.511C637.6 509.455 632.584 512.296 628.694 512.487C623.854 512.725 619.202 511.622 615.554 508.25C613.589 506.433 612.376 503.901 611.272 501.503C612.123 499.863 612.204 497.79 612.469 495.972Z"/>
	<path fill="#2579B7" transform="scale(0.488281 0.488281)" d="M675.219 453.338C676.943 457.795 677.85 461.584 675.893 466.25C674.161 470.38 670.501 474.201 666.314 475.809C663.571 476.863 660.893 477.254 658 476.618L657.301 476.475C652.969 475.537 649.384 472.431 647.014 468.75L646.216 467.374C649.165 464.173 651.486 460.104 654.955 457.474L655.509 457.06C657.297 455.695 658.99 454.761 661.261 454.434L662 454.363C665.354 453.921 672.555 454.899 675.219 453.338Z"/>
	<path fill="#2579B7" transform="scale(0.488281 0.488281)" d="M576.308 459.976C577.953 459.812 579.966 459.799 581.511 459.202L592.5 454.893C596.159 453.519 601.976 454.598 605.869 454.972L606.6 454.955C607.564 460.19 607.405 466.047 604.096 470.502C601.439 474.08 596.767 476.567 592.306 476.943C588.167 477.291 583.447 476.078 580.353 473.25C577.414 470.563 575.548 467.501 574.53 463.638C575.436 462.508 575.826 461.317 576.308 459.976Z"/>
	<path fill="#6F81B1" transform="scale(0.488281 0.488281)" d="M416.58 345.074C415.253 344.995 413.858 345.015 412.576 344.662C410.297 344.036 406.868 344.488 404.472 344.483L385.957 344.479C391.071 338.847 396.685 334.506 402.765 329.989C429.65 310.018 465.17 297.045 498.656 295.468C513.015 294.791 527.341 295.181 541.552 297.525C575.355 303.102 609.486 319.355 634.75 342.584L636.711 344.513C618.752 344.323 596.361 341.51 582.318 355.25C580.577 356.953 579.132 358.86 577.923 360.974C576.029 364.285 573.371 372.587 569.469 373.829C567.99 374.3 565.738 373.995 564.148 373.998L550.806 374.017L486.958 374.034L469.014 374.514C465.096 374.649 461.081 374.982 457.183 374.449C454.362 374.063 452.014 372.467 450.07 370.451C447.135 367.407 445.788 363.115 443.75 359.483C441.906 356.197 439.194 353.622 436.302 351.264C429.969 347.765 423.774 345.808 416.58 345.074Z"/>
	<path fill="#FEFEFE" transform="scale(0.488281 0.488281)" d="M416.58 345.074L413.325 344.25C415.871 340.798 420.688 338.097 424.305 335.882C444.324 323.627 468.175 314.832 491.379 311.331C515.706 307.662 538.603 309.965 562.112 316.901C550.763 316.533 539.051 315.75 527.724 316.598C505.126 318.291 482.655 324.897 462.319 334.806C453.002 339.346 444.149 344.443 436.302 351.264C429.969 347.765 423.774 345.808 416.58 345.074Z"/>
	<path fill="#2579B7" transform="scale(0.488281 0.488281)" d="M637.617 360.584C641.247 361.229 644.644 361.344 648.073 362.852L648.805 363.167C655.86 366.29 660.454 372.457 663.106 379.526C664.928 384.385 665.463 389.893 665.591 395.051C658.58 392.181 651.361 389.197 643.939 387.569C628.552 384.194 611.288 386.514 596.832 392.614C581.142 399.233 567.898 412.426 561.518 428.25C554.144 446.538 553.833 467.859 561.652 486.043L564.732 492.553L550.109 498.062C547.385 496.737 543.326 497.027 540.362 497.011L515.631 498.016C502.057 498.053 488.234 496.384 474.715 498.299L455.945 492.712C459.201 485.65 462.376 479.152 463.951 471.464C467.989 451.742 465.511 429.852 454.027 412.909C442.753 396.277 425.635 386.315 406.25 382.346L402 381.649C388.86 380.505 374.025 382.399 362 388.085C352.927 392.376 345.274 398.378 337.557 404.685L361.172 377.787C362.981 377.552 364.206 376.17 365.586 375.013C368.335 372.709 371.052 370.177 374.027 368.167C376.572 366.449 379.453 365.275 382.425 364.534L383.25 364.334C389.432 362.748 395.5 363.834 401.75 363.972C407.862 364.106 413.766 362.767 419.844 364.409C421.63 364.892 423.616 365.624 425.25 366.519C426.707 367.318 427.849 368.461 429.505 368.856L430.385 369.041L430.809 369.769C433.501 374.435 435.408 381.387 440.421 384.076L450.35 389.16L452.278 389.669C454.896 390.325 457.56 390.9 460.264 391.022L483.441 391.019L523.916 390.996L546.535 391.138C553.47 391.27 560.296 391.662 567.21 390.737C572.509 390.028 576.503 387.93 581.005 385.184C584.413 381.503 586.703 377.505 589.131 373.146C590.617 372.949 592.012 372.735 593.451 372.312C594.474 370.405 596.418 368.929 598.175 367.693C604.872 362.983 611.033 363.592 618.75 363.697C622.475 363.747 626.259 363.448 629.964 363.098C632.511 362.857 635.668 362.575 637.944 361.349L637.617 360.584Z"/>
	<path fill="#0DDACF" transform="scale(0.488281 0.488281)" d="M589.131 373.146C590.617 372.949 592.012 372.735 593.451 372.312C589.144 382.035 584.977 391.815 574.415 396.127C571.925 397.143 568.928 397.815 566.253 397.954C549.048 398.847 531.591 397.549 514.356 397.502C498.202 397.458 481.896 398.664 465.756 397.94C460.117 397.686 453.259 397.86 448.063 395.466C444.658 393.897 441.753 391.916 440.469 388.217C439.926 386.651 439.809 385.642 440.421 384.076L450.35 389.16C449.39 389.922 448.951 390.36 448.485 391.5C451.006 394.26 457.648 394.539 461.25 394.804C468.849 395.365 476.631 395.022 484.253 395.009L520.393 395.145L547.603 395.463C553.52 395.557 559.726 395.959 565.601 395.223C570.263 394.638 575.253 393.137 578.79 389.925C580.392 388.469 580.916 387.316 581.005 385.184C584.413 381.503 586.703 377.505 589.131 373.146Z"/>
	<path fill="#6CF9FE" transform="scale(0.488281 0.488281)" d="M581.005 385.184C580.916 387.316 580.392 388.469 578.79 389.925C575.253 393.137 570.263 394.638 565.601 395.223C559.726 395.959 553.52 395.557 547.603 395.463L520.393 395.145L484.253 395.009C476.631 395.022 468.849 395.365 461.25 394.804C457.648 394.539 451.006 394.26 448.485 391.5C448.951 390.36 449.39 389.922 450.35 389.16L452.278 389.669C454.896 390.325 457.56 390.9 460.264 391.022L483.441 391.019L523.916 390.996L546.535 391.138C553.47 391.27 560.296 391.662 567.21 390.737C572.509 390.028 576.503 387.93 581.005 385.184Z"/>
	<path fill="#001157" transform="scale(0.488281 0.488281)" d="M532.335 449.116C534.776 448.929 537.803 449.191 540.086 450.137C544.089 451.794 546.742 454.717 548.253 458.732C549.977 463.312 549.589 467.851 547.434 472.25C545.473 476.252 541.413 478.322 537.422 479.748C533.551 479.542 529.898 479.29 526.46 477.331C523.235 475.493 520.595 472.645 519.648 468.987C518.594 464.918 519.461 459.233 521.745 455.75C524.181 452.034 528.137 450.134 532.335 449.116Z"/>
	<path fill="#0A4F8B" transform="scale(0.488281 0.488281)" d="M531.547 453.504C533.497 453.438 535.185 453.472 537.034 454.153C539.489 455.056 541.965 457.831 542.933 460.22C543.85 462.482 544.018 465.491 543.007 467.75C541.64 470.803 539.029 472.313 536.056 473.528C534.764 473.573 533.32 473.685 532.069 473.309C529.076 472.411 526.606 470.243 525.099 467.557C523.996 465.589 523.597 463.446 524.297 461.256L524.47 460.75L524.647 460.172C525.732 456.943 528.679 455.001 531.547 453.504Z"/>
	<path fill="#2579B7" transform="scale(0.488281 0.488281)" d="M531.938 459.864C533.47 459.926 534.996 459.993 536.247 460.997C537.681 462.148 537.863 463.304 537.984 465C537.399 466.769 536.414 467.771 535.155 469.115C533.281 469.034 531.587 469.023 530.25 467.507C529.381 466.522 528.885 465.335 528.981 464C529.112 462.195 530.741 461.075 531.938 459.864Z"/>
	<path fill="#001157" transform="scale(0.488281 0.488281)" d="M484.722 449.588C487.356 449.166 490.89 449.036 493.476 449.78C497.673 450.988 500.16 453.75 502.13 457.538C503.875 460.893 504.061 465.251 502.836 468.834L502.595 469.5L502.149 470.781C500.227 475.735 496.262 477.8 491.65 479.794C488.867 480.079 486.246 480.06 483.582 479.086C479.302 477.52 475.905 474.43 474.05 470.25C472.508 466.775 472.739 462.549 474.07 459.046C476.061 453.806 479.913 451.727 484.722 449.588Z"/>
	<path fill="#0A4F8B" transform="scale(0.488281 0.488281)" d="M486.471 454.027C488.223 453.975 490.467 453.747 492.111 454.419C494.508 455.397 496.717 458.255 497.593 460.659C498.323 462.662 498.234 465.489 497.317 467.423C495.852 470.513 493.304 471.871 490.245 473.033C488.787 473.066 486.984 473.226 485.577 472.811C483.138 472.093 480.529 469.147 479.304 466.996C478.475 465.54 478.192 463.66 478.702 462.051C479.92 458.209 482.977 455.731 486.471 454.027Z"/>
	<path fill="#2579B7" transform="scale(0.488281 0.488281)" d="M486.671 459.837C487.926 460.007 489.364 460.229 490.372 461.072C491.929 462.377 492.316 463.324 492.482 465.25C491.89 466.765 490.119 467.693 488.816 468.603C487.172 468.621 485.811 468.42 484.545 467.25C483.408 466.199 483.086 464.981 483.019 463.5C483.582 461.8 485.281 460.858 486.671 459.837Z"/>
</svg>
